<?xml version="1.0" encoding="UTF-8"?>
<svg version="1.1" xmlns="http://www.w3.org/2000/svg" width="192" height="192">
<path d="M0 0 C2.18341574 0.00851187 4.36420341 -0.02037972 6.54736328 -0.05200195 C26.18907418 -0.14916493 47.20012874 6.5397496 62.31689453 19.44604492 C62.31689453 20.10604492 62.31689453 20.76604492 62.31689453 21.44604492 C62.87376953 21.69354492 63.43064453 21.94104492 64.00439453 22.19604492 C69.42644607 25.12688359 73.74113862 29.45718959 77.31689453 34.44604492 C77.31689453 35.10604492 77.31689453 35.76604492 77.31689453 36.44604492 C78.30689453 36.77604492 79.29689453 37.10604492 80.31689453 37.44604492 C93.58704777 53.0951612 98.88137955 74.11053967 98.76293945 94.12915039 C98.75442759 96.31256613 98.78331917 98.4933538 98.81494141 100.67651367 C98.91210439 120.31822458 92.22318985 141.32927913 79.31689453 156.44604492 C78.65689453 156.44604492 77.99689453 156.44604492 77.31689453 156.44604492 C77.06939453 157.00291992 76.82189453 157.55979492 76.56689453 158.13354492 C73.63605586 163.55559646 69.30574986 167.87028901 64.31689453 171.44604492 C63.65689453 171.44604492 62.99689453 171.44604492 62.31689453 171.44604492 C61.98689453 172.43604492 61.65689453 173.42604492 61.31689453 174.44604492 C45.66777825 187.71619816 24.65239978 193.01052994 4.63378906 192.89208984 C2.45037333 192.88357798 0.26958565 192.91246956 -1.91357422 192.9440918 C-21.55528512 193.04125478 -42.56633968 186.35234024 -57.68310547 173.44604492 C-57.68310547 172.78604492 -57.68310547 172.12604492 -57.68310547 171.44604492 C-58.23998047 171.19854492 -58.79685547 170.95104492 -59.37060547 170.69604492 C-64.79265701 167.76520625 -69.10734955 163.43490025 -72.68310547 158.44604492 C-72.68310547 157.78604492 -72.68310547 157.12604492 -72.68310547 156.44604492 C-73.67310547 156.11604492 -74.66310547 155.78604492 -75.68310547 155.44604492 C-88.9532587 139.79692864 -94.24759049 118.78155017 -94.12915039 98.76293945 C-94.12063852 96.57952372 -94.14953011 94.39873604 -94.18115234 92.21557617 C-94.27831533 72.57386527 -87.58940079 51.56281071 -74.68310547 36.44604492 C-74.02310547 36.44604492 -73.36310547 36.44604492 -72.68310547 36.44604492 C-72.43560547 35.88916992 -72.18810547 35.33229492 -71.93310547 34.75854492 C-69.0022668 29.33649338 -64.6719608 25.02180084 -59.68310547 21.44604492 C-59.02310547 21.44604492 -58.36310547 21.44604492 -57.68310547 21.44604492 C-57.18810547 19.96104492 -57.18810547 19.96104492 -56.68310547 18.44604492 C-41.03398919 5.17589169 -20.01861072 -0.11844009 0 0 Z " fill="#FE8700" transform="translate(93.68310546875,-0.446044921875)"/>
<path d="M0 0 C2.31 0.33 4.62 0.66 7 1 C7.65507477 16.70194383 -2.71016698 33.95470803 -12 46 C-13 47 -13 47 -15.875 47.25 C-19 47 -19 47 -20.5949707 45.7421875 C-22.14983911 43.81420471 -22.83606788 42.22344818 -23.60546875 39.875 C-23.86650391 39.08609375 -24.12753906 38.2971875 -24.39648438 37.484375 C-24.65751953 36.66453125 -24.91855469 35.8446875 -25.1875 35 C-25.46013672 34.18015625 -25.73277344 33.3603125 -26.01367188 32.515625 C-28 26.42222744 -28 26.42222744 -28 23 C-28.66 23 -29.32 23 -30 23 C-30.2475 23.84046875 -30.495 24.6809375 -30.75 25.546875 C-32.14335027 29.39600511 -33.94053257 32.72801222 -36 36.25 C-36.35578125 36.87390625 -36.7115625 37.4978125 -37.078125 38.140625 C-38.55452859 40.69678644 -39.90361651 42.90361651 -42 45 C-44.875 45.4375 -44.875 45.4375 -48 45 C-55.97711969 36.54914332 -60.42950003 20.20939788 -61.23046875 8.68359375 C-61 6 -61 6 -59 4 C-56.43937949 4.16520132 -55.28922623 4.72234282 -53.4375 6.5 C-50.64501946 11.35648789 -49.26752117 16.77389823 -47.9375 22.1875 C-47.11333585 25.53910087 -46.11243245 28.73655707 -45 32 C-44.65219482 31.38479492 -44.30438965 30.76958984 -43.94604492 30.13574219 C-42.36271517 27.33886918 -40.77515524 24.54441972 -39.1875 21.75 C-38.36668945 20.29787109 -38.36668945 20.29787109 -37.52929688 18.81640625 C-36.99755859 17.88183594 -36.46582031 16.94726562 -35.91796875 15.984375 C-35.43094482 15.12553711 -34.9439209 14.26669922 -34.44213867 13.38183594 C-33.08206983 11.13554652 -31.61438682 9.06876029 -30 7 C-25.43231903 7.47278167 -25.43231903 7.47278167 -23.55859375 9.7578125 C-20.00093076 17.26981169 -17.9221455 24.94631775 -16 33 C-11.95897294 28.55394972 -9.81113585 23.62724895 -7.4375 18.1875 C-7.05142578 17.32318359 -6.66535156 16.45886719 -6.26757812 15.56835938 C-3.99460573 10.4377147 -1.91715377 5.27370413 0 0 Z " fill="#090400" transform="translate(150,79)"/>
<path d="M0 0 C4.72460938 -0.22753906 4.72460938 -0.22753906 7.203125 1.8203125 C9.76735252 6.35788033 10.17409395 10.74604846 10.75 15.875 C10.87503906 16.84308594 11.00007813 17.81117187 11.12890625 18.80859375 C11.76029328 23.90825821 12.14308928 28.86309468 12 34 C12.72703125 33.63648438 13.4540625 33.27296875 14.203125 32.8984375 C16.31979481 31.8401026 18.43843115 30.7856953 20.55859375 29.734375 C22.79490881 28.60733313 25.01746846 27.45241698 27.22265625 26.265625 C36.83860759 21.15981013 36.83860759 21.15981013 43 22 C43.495 24.475 43.495 24.475 44 27 C40.10120039 30.20676268 35.6733584 32.193102 31.1328125 34.30664062 C27.43932589 36.08601347 24.71059787 37.91669492 22 41 C23.02480469 41.34804687 23.02480469 41.34804687 24.0703125 41.703125 C27.66712458 43.29531381 30.71433784 45.44320236 33.875 47.75 C34.49197754 48.19520996 35.10895508 48.64041992 35.74462891 49.09912109 C40.01430828 52.20751983 44.08141119 55.45461012 48 59 C47.34 60.32 46.68 61.64 46 63 C39.15162769 62.68234017 34.53213795 59.71395724 28.8125 56.125 C27.47928711 55.31095703 27.47928711 55.31095703 26.11914062 54.48046875 C22.269194 52.11438585 18.62166192 49.71624644 15 47 C15.33 54.59 15.66 62.18 16 70 C14.02 70 12.04 70 10 70 C7.16428136 67.16428136 7.2050791 64.07735096 6.6875 60.25 C6.56850342 59.41033691 6.44950684 58.57067383 6.3269043 57.70556641 C5.87434526 54.47173029 5.43801681 51.2358385 5 48 C4.7924349 46.49766012 4.58439768 44.99538542 4.37597656 43.49316406 C3.7957619 39.30649646 3.22446268 35.11868448 2.65859985 30.93005371 C2.42950746 29.23879796 2.19855699 27.54779276 1.96566772 25.85705566 C0.77663954 17.19238241 -0.32906038 8.76901432 0 0 Z " fill="#080400" transform="translate(35,61)"/>
</svg>
